<?xml version="1.0" encoding="iso-8859-1"?>
<!-- Generator: Adobe Illustrator 19.0.0, SVG Export Plug-In . SVG Version: 6.00 Build 0)  -->
<svg version="1.1" id="Capa_1" xmlns="http://www.w3.org/2000/svg" xmlns:xlink="http://www.w3.org/1999/xlink" x="0px" y="0px"
	 viewBox="0 0 512 512" style="enable-background:new 0 0 512 512;" xml:space="preserve">
<g>
	<g>
		<path d="M467,0H45C20.187,0,0,20.187,0,45v422c0,24.813,20.187,45,45,45h422c24.813,0,45-20.187,45-45V45
			C512,20.187,491.813,0,467,0z M482,467c0,8.271-6.729,15-15,15H45c-8.271,0-15-6.729-15-15V45c0-8.271,6.729-15,15-15h422
			c8.271,0,15,6.729,15,15V467z"/>
	</g>
</g>
<g>
	<g>
		<path d="M447.934,327.502c-7.653-10.052-56.471-53.402-89.263-54.928c-12.929-0.598-20.794,4.852-25.102,9.534
			c-7.512,8.165-16.204,17.699-24.313,27.527c-1.274,1.545-2.087,2.144-2.403,2.342c-0.398-0.058-1.514-0.309-3.58-1.398
			c-45.088-23.761-78.649-57.333-102.604-102.636c-1.228-2.323-1.371-3.474-1.387-3.741c0.63-1.227,2.504-2.707,8.979-7.878
			c7.525-6.01,15.307-12.225,22.008-20.111c10.065-11.843,9.618-29.88-1.329-53.611c-6.011-13.031-15.056-27.331-24.815-39.235
			C187.889,63.566,178.716,61.012,172.537,61c-0.068,0-0.134,0-0.201,0c-30.054,0-53.008,13.48-66.384,38.992
			c-19.464,37.119-22.058,81.436-7.5,128.161c12.872,41.318,38.994,82.908,73.554,117.107c33.78,33.429,74.26,58.246,113.981,69.881
			c42.749,12.522,87.055,10.836,126.608-10.433c24.078-12.949,36.271-34.29,38.374-67.162
			C451.199,333.942,450.121,330.375,447.934,327.502z M398.387,378.286c-71.904,38.669-155.522-5.111-205.279-54.35
			c-55.942-55.36-96.371-141.768-60.587-210.013c7.965-15.189,19.571-22.319,37.434-22.887c4.583,3.392,15.325,15.159,25.045,31.5
			c11.745,19.748,13.325,31.587,12.254,34.432c-6.53,7.617-15.8,14.159-24.854,21.697c-13.947,11.608-16.877,26.986-8.251,43.3
			c26.496,50.112,65.234,88.855,115.138,115.153c16.501,8.696,31.406,5.793,43.11-8.391c7.567-9.172,15.858-18.271,23.061-26.102
			c2.467-0.684,13.368,0.688,35.011,15.23c12.814,8.609,24.233,18.427,29.999,24.014
			C417.892,363.445,409.73,372.186,398.387,378.286z"/>
	</g>
</g>
<g>
</g>
<g>
</g>
<g>
</g>
<g>
</g>
<g>
</g>
<g>
</g>
<g>
</g>
<g>
</g>
<g>
</g>
<g>
</g>
<g>
</g>
<g>
</g>
<g>
</g>
<g>
</g>
<g>
</g>
</svg>
